<svg width="132" height="24" viewBox="0 0 132 24" fill="none" xmlns="http://www.w3.org/2000/svg">
<path d="M31.6448 12.0012C31.6448 13.284 31.144 14.4903 30.2362 15.3981L21.6343 24L16.8708 19.2365L24.1037 12.0012L16.8708 4.7635L21.6343 0L30.2387 8.60191C31.144 9.50972 31.6448 10.716 31.6448 12.0012Z" fill="url(#paint0_linear_136_8268)"/>
<path d="M22.0117 12.0013L15.8248 18.1907H15.8224L9.63306 12.0013L15.8224 5.81201H15.8248L22.0117 12.0013Z" fill="black"/>
<path d="M7.54116 12.0012L14.7764 19.2365L10.0105 24L1.40857 15.3981C0.500769 14.4903 0 13.284 0 12.0012C0 10.7185 0.500769 9.50972 1.40857 8.60191L10.0105 0L14.7764 4.7635L7.54116 12.0012Z" fill="url(#paint1_linear_136_8268)"/>
<path d="M42.2547 16.8597V3.36353H37.5652V20.6364H49.2383V16.8597H42.2547Z" fill="#282C2D"/>
<path d="M66.0671 7.13781C65.3172 5.82051 64.3083 4.82143 63.0379 4.14305C61.7674 3.46713 60.3515 3.12671 58.7875 3.12671C57.2235 3.12671 55.7927 3.46713 54.5248 4.14305C53.2568 4.82143 52.2479 5.82051 51.5029 7.13781C50.7579 8.45758 50.3854 10.0783 50.3854 12C50.3854 13.9216 50.7579 15.5276 51.5029 16.8473C52.2479 18.1646 53.2568 19.1662 54.5248 19.8495C55.7927 20.5328 57.2136 20.8732 58.7875 20.8732C60.3613 20.8732 61.7674 20.5353 63.0379 19.8569C64.3083 19.181 65.3172 18.1819 66.0671 16.8621C66.8146 15.5448 67.1871 13.9241 67.1871 12C67.1871 10.0758 66.8146 8.45758 66.0671 7.13781ZM61.9549 14.6198C61.6811 15.3302 61.279 15.8705 60.7486 16.238C60.2158 16.608 59.5621 16.7906 58.7875 16.7906C58.0129 16.7906 57.3567 16.608 56.8263 16.238C56.296 15.8705 55.8939 15.3302 55.62 14.6198C55.3462 13.9093 55.2105 13.036 55.2105 12C55.2105 10.9639 55.3462 10.0931 55.62 9.38265C55.8939 8.66973 56.296 8.13195 56.8263 7.76192C57.3567 7.39436 58.0104 7.20934 58.7875 7.20934C59.5645 7.20934 60.2158 7.39436 60.7486 7.76192C61.279 8.13195 61.6811 8.66973 61.9549 9.38265C62.2263 10.0931 62.3644 10.9664 62.3644 12C62.3644 13.0336 62.2263 13.9093 61.9549 14.6198Z" fill="#282C2D"/>
<path d="M79.8051 3.36353H73.3962L67.6953 20.6364H72.7548L73.7539 17.3308L74.8122 13.823L76.534 8.12208H76.6672L78.3891 13.823L79.4474 17.3308L80.4465 20.6364H85.5084L79.8051 3.36353ZM71.81 13.823V17.3308H81.3247V13.823H71.81Z" fill="#282C2D"/>
<path d="M97.416 3.36353V12.4045H97.2803L91.1403 3.36353H87.1613V20.6364H91.8507V11.5609H91.9519L98.193 20.6364H102.105V3.36353H97.416Z" fill="#282C2D"/>
<path d="M116.781 7.14274V3.36353H104.333V20.6364H116.749V16.8597H109.022V13.8896H116.142V10.1104H109.022V7.14274H116.781Z" fill="#282C2D"/>
<path d="M131.56 7.14274V3.36353H119.109V20.6364H131.525V16.8597H123.799V13.8896H130.918V10.1104H123.799V7.14274H131.56Z" fill="#282C2D"/>
<defs>
<linearGradient id="paint0_linear_136_8268" x1="23.3192" y1="20.539" x2="24.6784" y2="3.07616" gradientUnits="userSpaceOnUse">
<stop stop-color="#898D8E"/>
<stop offset="0.96" stop-color="#898D8E" stop-opacity="0.7"/>
</linearGradient>
<linearGradient id="paint1_linear_136_8268" x1="7.26734" y1="20.7882" x2="7.68424" y2="2.90595" gradientUnits="userSpaceOnUse">
<stop stop-color="#BC0000"/>
<stop offset="0.97" stop-color="#EE0000"/>
</linearGradient>
</defs>
</svg>
